<svg xmlns="http://www.w3.org/2000/svg" width="172.02" height="17.009" viewBox="0 0 172.02 17.009"><g transform="translate(-2118.586 -67.374)"><path d="M2124.692,81.233h18.076v3.15h-19c-3.708,0-5.186-1.89-5.186-4.894V67.374h4.7V79.489c0,1.114.63,1.744,1.4,1.744" fill="#fff"/><path d="M2165.934,84.36V77.113h-14.781V84.36H2146.4V72.269c0-2.762,1.7-4.895,5.089-4.895h14.077c3.416,0,5.089,2.133,5.089,4.895V84.36Zm-13.351-13.934c-.969,0-1.43.752-1.43,1.843v1.817h14.781V72.269c0-1.091-.461-1.843-1.478-1.843Z" fill="#fff"/><path d="M2198.7,72.292V84.335H2193.7V72.292c0-.871-.436-1.72-1.429-1.72h-12.964V84.335H2174.3V67.423h19.238a4.773,4.773,0,0,1,5.161,4.869" fill="#fff"/><path d="M2221.424,67.374c3.3,0,4.749,2.205,4.749,5.015v6.93c0,2.859-1.453,5.04-4.749,5.04h-19.093V67.374Zm.267,11.945v-6.93c0-1.114-.436-1.769-1.5-1.769h-13.375V81.136h13.375c1.066,0,1.5-.7,1.5-1.817" fill="#fff"/><rect width="4.87" height="17.009" transform="translate(2229.811 67.374)" fill="#fff"/><path d="M2257.845,84.36V77.113h-14.78V84.36h-4.75V72.269c0-2.762,1.7-4.895,5.089-4.895h14.077c3.417,0,5.089,2.133,5.089,4.895V84.36Zm-13.351-13.934c-.969,0-1.429.752-1.429,1.843v1.817h14.78V72.269c0-1.091-.46-1.843-1.478-1.843Z" fill="#fff"/><path d="M2290.606,72.292V84.335h-4.992V72.292c0-.871-.436-1.72-1.429-1.72h-12.963V84.335h-5.016V67.423h19.239a4.774,4.774,0,0,1,5.161,4.869" fill="#fff"/></g></svg>